<?xml version="1.0" encoding="UTF-8"?>
<svg width="170px" height="109px" viewBox="0 0 170 109" version="1.1" xmlns="http://www.w3.org/2000/svg" xmlns:xlink="http://www.w3.org/1999/xlink">
    <!-- Generator: Sketch 53.2 (72643) - https://sketchapp.com -->
    <title>icons/delivery/van</title>
    <desc>Created with Sketch.</desc>
    <g id="icon-exploration" stroke="none" stroke-width="1" fill="none" fill-rule="evenodd">
        <g id="icons/delivery/van">
            <g id="Group-14">
                <path d="M106.9206,89.287234 C107.056479,78.9853585 115.410874,70.7340426 125.769189,70.7340426 C136.127505,70.7340426 144.481899,78.9853585 144.617778,89.287234 L163.010589,89.287234 C164.294277,89.287234 165.334913,88.2489157 165.334913,86.9680851 L165.334913,51.9775252 C165.334913,50.99578 164.71537,50.1203974 163.788119,49.7919849 L144.217666,42.8605434 L90.6486486,42.8605434 C88.0812709,42.8605434 86,40.7839067 86,38.2222455 L86,4.89371146 L20.4925376,4.63828185 C19.2088576,4.63352004 18.1720982,3.59134867 18.1768706,2.31052693 C18.181643,1.02970519 19.2261401,-0.00474577419 20.5098201,1.60272617e-05 L111.387027,0.354368479 C113.814676,0.363373826 116.062895,1.63154692 117.322332,3.70234924 L136.047628,34.4910317 C136.32538,34.9477199 136.752627,35.2947333 137.257173,35.4734327 L165.343181,45.4209042 C168.124933,46.4061419 169.983562,49.0322895 169.983562,51.9775252 L169.983562,86.9680851 C169.983562,90.8105769 166.861655,93.9255319 163.010589,93.9255319 L144.111965,93.9255319 L144.113844,93.9056519 C142.151872,102.208046 134.706428,108.350638 125.769189,108.350638 C116.610058,108.350638 109.017718,101.899246 107.288602,93.283328 L107.321107,93.9255319 L72.0550802,93.9255319 C70.0859291,102.21785 62.6452391,108.350638 53.7151351,108.350638 C44.7850312,108.350638 37.3443412,102.21785 35.3751901,93.9255319 L25.1498275,93.9255319 C21.2987609,93.9255319 18.1768545,90.8105769 18.1768545,86.9680851 L18.1768545,67.2553191 C18.1768545,65.9744886 19.21749,64.9361702 20.5011789,64.9361702 C21.7848677,64.9361702 22.8255032,65.9744886 22.8255032,67.2553191 L22.8255032,86.9680851 C22.8255032,88.2489157 23.8661386,89.287234 25.1498275,89.287234 L34.8665463,89.287234 C35.0024253,78.9853585 43.3568195,70.7340426 53.7151351,70.7340426 C64.0734507,70.7340426 72.427845,78.9853585 72.563724,89.287234 L106.9206,89.287234 Z M133.118831,38.2222455 C132.72047,37.8271534 132.368804,37.3828976 132.073476,36.8973103 L113.348179,6.10862788 C112.928367,5.41836044 112.178961,4.99563608 111.369745,4.9926343 L90.6486486,4.91183768 L90.6486486,38.2222455 L133.118831,38.2222455 Z M53.7151351,75.3723404 C45.8388348,75.3723404 39.5135135,81.6835776 39.5135135,89.5423404 C39.5135135,97.4011032 45.8388348,103.71234 53.7151351,103.71234 C61.5914355,103.71234 67.9167568,97.4011032 67.9167568,89.5423404 C67.9167568,81.6835776 61.5914355,75.3723404 53.7151351,75.3723404 Z M125.769189,75.3723404 C117.892889,75.3723404 111.567568,81.6835776 111.567568,89.5423404 C111.567568,97.4011032 117.892889,103.71234 125.769189,103.71234 C133.64549,103.71234 139.970811,97.4011032 139.970811,89.5423404 C139.970811,81.6835776 133.64549,75.3723404 125.769189,75.3723404 Z" id="Combined-Shape" fill="#8C939C"></path>
                <path d="M1.98156628,15.8064729 C0.890159203,15.8064729 0,16.693935 0,17.7820351 C0,18.8701352 0.890159203,19.7575973 1.98156628,19.7575973 L57.465422,19.7575973 C58.5568291,19.7575973 59.4469883,18.8701352 59.4469883,17.7820351 C59.4469883,16.693935 58.5568291,15.8064729 57.465422,15.8064729 L1.98156628,15.8064729 Z" id="Path" fill="#1FB6FF"></path>
                <path d="M5.94469883,31.6109703 C4.85329176,31.6109703 3.96313255,32.4984323 3.96313255,33.5865325 C3.96313255,34.6746326 4.85329176,35.5620946 5.94469883,35.5620946 L57.465422,35.5620946 C58.5568291,35.5620946 59.4469883,34.6746326 59.4469883,33.5865325 C59.4469883,32.4984323 58.5568291,31.6109703 57.465422,31.6109703 L5.94469883,31.6109703 Z" id="Path" fill="#1FB6FF"></path>
                <path d="M13.8709639,47.4154676 C12.7795569,47.4154676 11.8893977,48.3029297 11.8893977,49.3910298 C11.8893977,50.4791299 12.7795569,51.366592 13.8709639,51.366592 L57.465422,51.366592 C58.5568291,51.366592 59.4469883,50.4791299 59.4469883,49.3910298 C59.4469883,48.3029297 58.5568291,47.4154676 57.465422,47.4154676 L13.8709639,47.4154676 Z" id="Path" fill="#1FB6FF"></path>
            </g>
        </g>
    </g>
</svg>