<svg xmlns="http://www.w3.org/2000/svg" width="29" height="50" viewBox="0 0 29 50">
    <path fill="#05b6e6" fill-rule="nonzero" stroke="#8C939C" stroke-width="2" d="M26.665 2.672c.274-.432.256-.845-.054-1.24-.329-.413-.74-.53-1.232-.35-7.916 2.802-13.863 6.144-17.84 10.025C3.18 15.401 1 20.647 1 26.847c0 3.987 1.231 7.33 3.694 10.025 2.426 2.677 6.238 4.411 11.437 5.201.31.036.583-.027.82-.189a.983.983 0 0 0 .439-.7 1.099 1.099 0 0 0-.219-.81 1.032 1.032 0 0 0-.684-.43c-4.688-.701-8.08-2.21-10.178-4.528-2.08-2.263-3.12-5.12-3.12-8.57 0-5.605 1.971-10.34 5.91-14.203 3.284-3.234 8.1-6.09 14.447-8.57a25.986 25.986 0 0 0-1.068 3.72c-.419 2.173-.628 4.599-.628 7.276 0 2.335.218 5.201.656 8.597.457 3.396.684 5.669.684 6.819 0 2.856-.31 4.85-.93 5.983-.456.754-1.258 1.527-2.407 2.317-3.129-5.112-4.68-10.816-4.68-17.14l.055-.889a1.007 1.007 0 0 0-.273-.782c-.2-.234-.447-.36-.739-.377a1.097 1.097 0 0 0-.793.27c-.219.197-.338.44-.356.727l-.082.89c0 6.845 1.652 12.927 4.953 18.353l.602 1.024c2.308 3.477 4.889 6.118 7.77 7.95.147.126.338.189.575.189.383 0 .694-.17.93-.512.165-.251.219-.52.165-.809a1.092 1.092 0 0 0-.493-.673c-2.388-1.527-4.55-3.666-6.484-6.414 1.477-.952 2.526-1.977 3.146-3.072.821-1.42 1.231-3.764 1.231-7.034 0-1.258-.237-3.63-.712-7.115-.419-3.144-.628-5.912-.628-8.301 0-2.497.2-4.788.602-6.872.474-2.266 1.148-4.107 2.023-5.526z"/>
</svg>
