<svg xmlns="http://www.w3.org/2000/svg" style="width:100%;height:100%">
    <g fill="#05b6e6" fill-rule="evenodd">
        <path fill-rule="nonzero" d="M22.535 45.05A22.665 22.665 0 0 1 3.182 34.126c-.575-.862-.288-2.012.67-2.587.862-.575 2.012-.287 2.586.67 3.737 6.229 10.828 9.773 18.109 9.006 4.981-.575 9.485-2.97 12.647-6.899 3.161-3.928 4.598-8.815 4.024-13.796-.575-4.982-2.97-9.485-6.899-12.647a19.312 19.312 0 0 0-13.796-4.022c-5.557.574-10.54 3.64-13.702 8.335-.575.862-1.725 1.15-2.587.575-.862-.575-1.053-1.725-.478-2.587C7.493 4.522 13.432.882 20.14.115A23.02 23.02 0 0 1 36.714 5c4.694 3.737 7.568 9.198 8.24 15.139a22.19 22.19 0 0 1-4.886 16.576c-3.737 4.694-9.198 7.568-15.139 8.24-.765.093-1.627.093-2.394.093z"/>
        <path fill-rule="nonzero" d="M1.935 39.973h-.383C.498 39.78-.078 38.728.115 37.768L1.647 30.2c.096-.48.383-.957.863-1.15.382-.287.957-.382 1.437-.287l7.473 1.63c1.054.191 1.63 1.244 1.437 2.204-.192 1.054-1.245 1.629-2.204 1.437l-5.654-1.245-1.244 5.653c-.19.956-.958 1.53-1.82 1.53z"/>
        <path stroke="#8C939C" d="M25.719 22.028V7.342a1.732 1.732 0 1 0-3.465 0v15.423c0 .471.192.922.532 1.248l8.496 8.166a1.73 1.73 0 0 0 2.45-.048 1.732 1.732 0 0 0-.049-2.45l-7.964-7.653z"/>
    </g>
</svg>
