<svg xmlns="http://www.w3.org/2000/svg" style="width:100%;height:100%;">
    <g fill="#05b6e6" fill-rule="nonzero" stroke="#8C939C">
        <path d="M2.987 27.724l2.006 1.709a3.457 3.457 0 0 1 1.21 2.848l-.176 2.59A5.598 5.598 0 0 0 7.04 38.47l-3.956 8.96a2.633 2.633 0 0 0 .515 2.854 2.8 2.8 0 0 0 2.876.733l4.113-1.344 1.882 3.813A2.725 2.725 0 0 0 14.95 55h.073a2.717 2.717 0 0 0 2.464-1.653l3.65-8.265a5.939 5.939 0 0 0 5.703 0l3.65 8.265A2.718 2.718 0 0 0 32.96 55h.073a2.724 2.724 0 0 0 2.475-1.52l1.882-3.814 4.12 1.35a2.8 2.8 0 0 0 2.883-.734c.73-.775.929-1.895.507-2.864l-3.956-8.949a5.598 5.598 0 0 0 1.018-3.603l-.176-2.59a3.452 3.452 0 0 1 1.21-2.843l2.006-1.709A5.649 5.649 0 0 0 47 23.43a5.649 5.649 0 0 0-1.998-4.295L42.99 17.42a3.451 3.451 0 0 1-1.21-2.848l.176-2.59a5.63 5.63 0 0 0-1.703-4.401 5.939 5.939 0 0 0-4.513-1.66l-2.656.17a3.633 3.633 0 0 1-2.933-1.19L28.4 2.951A5.92 5.92 0 0 0 23.992 1a5.92 5.92 0 0 0-4.408 1.95l-1.752 1.951a3.634 3.634 0 0 1-2.922 1.18l-2.656-.171a5.939 5.939 0 0 0-4.513 1.66 5.63 5.63 0 0 0-1.703 4.4l.176 2.59a3.457 3.457 0 0 1-1.21 2.85l-2.006 1.708A5.649 5.649 0 0 0 1 23.413c0 1.645.728 3.21 1.998 4.295l-.011.016zM14.95 52.14l-1.887-3.824c-.573-1.163-1.945-1.728-3.199-1.317L5.74 48.35l3.56-7.973c.924.434 1.95.624 2.972.55l2.656-.17a3.634 3.634 0 0 1 2.922 1.18l1.057 1.245-3.956 8.96zm27.283-3.79L38.119 47c-1.254-.412-2.626.153-3.198 1.316l-1.888 3.824-3.956-8.96 1.097-1.223a3.634 3.634 0 0 1 2.921-1.179l2.656.17a5.984 5.984 0 0 0 2.973-.55l3.509 7.951zM4.846 21.205l2.006-1.708a6.195 6.195 0 0 0 2.17-5.103l-.175-2.59a2.913 2.913 0 0 1 .882-2.284 3.073 3.073 0 0 1 2.345-.856l2.656.17a6.518 6.518 0 0 0 5.232-2.11l1.77-1.962a3.063 3.063 0 0 1 2.28-1.009c.873 0 1.704.368 2.28 1.01l1.757 1.956a6.518 6.518 0 0 0 5.233 2.115l2.656-.17a3.073 3.073 0 0 1 2.346.858c.619.603.94 1.437.88 2.288l-.175 2.59a6.19 6.19 0 0 0 2.165 5.102l2.006 1.708a2.922 2.922 0 0 1 1.035 2.224c0 .852-.378 1.662-1.035 2.223l-2.006 1.708a6.191 6.191 0 0 0-2.187 5.097l.175 2.59c.059.85-.262 1.685-.88 2.288a3.073 3.073 0 0 1-2.347.858l-2.656-.17a6.513 6.513 0 0 0-5.233 2.093l-1.774 1.973a3.063 3.063 0 0 1-2.28 1.01 3.063 3.063 0 0 1-2.28-1.01l-1.735-1.973a6.509 6.509 0 0 0-4.815-2.127h-.412l-2.656.171a3.073 3.073 0 0 1-2.347-.858 2.912 2.912 0 0 1-.88-2.288l.175-2.59a6.195 6.195 0 0 0-2.17-5.102L4.846 25.62a2.922 2.922 0 0 1-1.035-2.224c0-.852.377-1.662 1.035-2.223v.033z"/>
        <path d="M17.45 25.219l-.957 5.206a1.31 1.31 0 0 0 .566 1.318c.44.301 1.022.34 1.503.101l4.952-2.484 4.953 2.468c.48.24 1.063.2 1.503-.101a1.31 1.31 0 0 0 .565-1.318l-.957-5.19 3.99-3.679c.39-.357.53-.893.362-1.381-.168-.488-.617-.843-1.155-.915l-5.545-.748-2.468-4.743a1.435 1.435 0 0 0-1.28-.753c-.543 0-1.04.292-1.278.753l-2.468 4.743-5.51.732c-.54.072-.988.427-1.156.915a1.293 1.293 0 0 0 .363 1.381l4.018 3.695zm2.98-4.476a1.415 1.415 0 0 0 1.07-.75L23.015 17l1.514 2.972c.207.405.608.686 1.071.75l3.401.47-2.466 2.31a1.34 1.34 0 0 0-.408 1.214L26.693 28l-3.033-1.549a1.462 1.462 0 0 0-1.326 0L19.301 28l.567-3.284a1.34 1.34 0 0 0-.408-1.215L17 21.192l3.43-.449z"/>
    </g>
</svg>
