<?xml version="1.0" encoding="UTF-8"?>
<svg width="80px" height="132px" viewBox="0 0 80 132" version="1.1" xmlns="http://www.w3.org/2000/svg" xmlns:xlink="http://www.w3.org/1999/xlink">
    <!-- Generator: Sketch 53.2 (72643) - https://sketchapp.com -->
    <title>icons/phone</title>
    <desc>Created with Sketch.</desc>
    <g id="icon-exploration" stroke="none" stroke-width="1" fill="none" fill-rule="evenodd">
        <g id="icons/phone">
            <path d="M26.725526,70.9915966 C27.7137514,72.1657727 28.87351,73.1927534 30.1668222,74.0333727 C32.6689321,75.6596792 35.5871029,76.5378151 38.6413979,76.5378151 C47.232494,76.5378151 54.1969534,69.5850607 54.1969534,61.0084034 C54.1969534,52.4317461 47.232494,45.4789916 38.6413979,45.4789916 C35.5085709,45.4789916 32.5194041,46.4030486 29.9771572,48.1086881 C28.1092881,49.3618753 26.5297861,51.0077258 25.3566102,52.9245212 C24.7167028,53.9700349 23.3489722,54.2997157 22.3016984,53.6608838 C21.2544245,53.0220519 20.9241887,51.65662 21.5640961,50.6111063 C23.0713338,48.1485034 25.0989774,46.0356868 27.4980982,44.4260732 C30.7676715,42.2324573 34.6185434,41.0420168 38.6413979,41.0420168 C49.6870928,41.0420168 58.6413979,49.9812726 58.6413979,61.0084034 C58.6413979,72.0355342 49.6870928,80.9747899 38.6413979,80.9747899 C34.7195399,80.9747899 30.9601401,79.8435114 27.7418554,77.7517098 C26.3217949,76.8287074 25.0274869,75.7312122 23.8888889,74.4900673 L23.8888889,76.5378151 C23.8888889,77.7630519 22.8939661,78.7563025 21.6666667,78.7563025 C20.4393672,78.7563025 19.4444444,77.7630519 19.4444444,76.5378151 L19.4444444,69.8823529 C19.4444444,68.0444978 20.9368286,66.5546218 22.7777778,66.5546218 L29.4444444,66.5546218 C30.6717439,66.5546218 31.6666667,67.5478725 31.6666667,68.7731092 C31.6666667,69.998346 30.6717439,70.9915966 29.4444444,70.9915966 L26.725526,70.9915966 Z M8.88888889,4.43697479 C6.43429,4.43697479 4.44444444,6.42347607 4.44444444,8.87394958 L4.44444444,123.12605 C4.44444444,125.576524 6.43429,127.563025 8.88888889,127.563025 L71.1111111,127.563025 C73.56571,127.563025 75.5555556,125.576524 75.5555556,123.12605 L75.5555556,8.87394958 C75.5555556,6.42347607 73.56571,4.43697479 71.1111111,4.43697479 L8.88888889,4.43697479 Z M8.88888889,0 L71.1111111,0 C76.0203089,-9.00289363e-16 80,3.97300256 80,8.87394958 L80,123.12605 C80,128.026997 76.0203089,132 71.1111111,132 L8.88888889,132 C3.97969111,132 6.01203334e-16,128.026997 0,123.12605 L0,8.87394958 C-6.01203334e-16,3.97300256 3.97969111,9.00289363e-16 8.88888889,0 Z M17.7777778,17.7478992 C15.3231789,17.7478992 13.3333333,19.7344004 13.3333333,22.1848739 L13.3333333,98.7226891 C13.3333333,101.173163 15.3231789,103.159664 17.7777778,103.159664 L62.2222222,103.159664 C64.6768211,103.159664 66.6666667,101.173163 66.6666667,98.7226891 L66.6666667,22.1848739 C66.6666667,19.7344004 64.6768211,17.7478992 62.2222222,17.7478992 L17.7777778,17.7478992 Z M17.7777778,13.3109244 L62.2222222,13.3109244 C67.13142,13.3109244 71.1111111,17.2839269 71.1111111,22.1848739 L71.1111111,98.7226891 C71.1111111,103.623636 67.13142,107.596639 62.2222222,107.596639 L17.7777778,107.596639 C12.86858,107.596639 8.88888889,103.623636 8.88888889,98.7226891 L8.88888889,22.1848739 C8.88888889,17.2839269 12.86858,13.3109244 17.7777778,13.3109244 Z M31.1111111,11.6470588 C29.8838117,11.6470588 28.8888889,10.6538082 28.8888889,9.42857143 C28.8888889,8.20333467 29.8838117,7.21008403 31.1111111,7.21008403 L48.8888889,7.21008403 C50.1161883,7.21008403 51.1111111,8.20333467 51.1111111,9.42857143 C51.1111111,10.6538082 50.1161883,11.6470588 48.8888889,11.6470588 L31.1111111,11.6470588 Z M39.4444444,119.798319 C40.9785687,119.798319 42.2222222,118.556756 42.2222222,117.02521 C42.2222222,115.493664 40.9785687,114.252101 39.4444444,114.252101 C37.9103201,114.252101 36.6666667,115.493664 36.6666667,117.02521 C36.6666667,118.556756 37.9103201,119.798319 39.4444444,119.798319 Z M39.4444444,124.235294 C35.4557213,124.235294 32.2222222,121.00723 32.2222222,117.02521 C32.2222222,113.043191 35.4557213,109.815126 39.4444444,109.815126 C43.4331676,109.815126 46.6666667,113.043191 46.6666667,117.02521 C46.6666667,121.00723 43.4331676,124.235294 39.4444444,124.235294 Z" id="Combined-Shape" fill="#8C939C"></path>
            <path d="M45.0874494,64.6379805 C45.8409383,65.6051238 45.6664173,66.9989453 44.6976458,67.7511679 C43.7288743,68.5033906 42.3327063,68.3291629 41.5792173,67.3620195 L37.2222222,61.7695836 L37.2222222,50.4705882 C37.2222222,49.2453515 38.217145,48.2521008 39.4444444,48.2521008 C40.6717439,48.2521008 41.6666667,49.2453515 41.6666667,50.4705882 L41.6666667,60.2472231 L45.0874494,64.6379805 Z" id="Path" fill="#1FB6FF"></path>
        </g>
    </g>
</svg>